<mxfile host="app.diagrams.net" agent="Mozilla/5.0 (Windows NT 10.0; Win64; x64) AppleWebKit/537.36 (KHTML, like Gecko) Chrome/134.0.0.0 Safari/537.36 Edg/134.0.0.0" version="26.1.2">
  <diagram id="H1byE0xw0lqCxHMV3l11" name="Page-1">
    <mxGraphModel dx="2022" dy="2292" grid="1" gridSize="10" guides="1" tooltips="1" connect="1" arrows="1" fold="1" page="1" pageScale="1" pageWidth="827" pageHeight="1169" math="0" shadow="0">
      <root>
        <mxCell id="0" />
        <mxCell id="1" parent="0" />
        <mxCell id="ED-ZUN9KfoYRXLNep6eE-1" value="" style="shape=image;verticalLabelPosition=bottom;labelBackgroundColor=default;verticalAlign=top;aspect=fixed;imageAspect=0;image=data:image/png,UklGRqZfAABXRUJQVlA4IJpfAABQrQGdASoVAz8CPp1KnkwlpCMiI3U7gLATiWdu+/v/9p/5Xx7RanyFcvIqIzHx21/c9vjKfwb973oilXcN9J4zXQvnV/zHqT/Uv6h/ABzl/NR+4XrKfkB70P7J6gHnG+pr6F/l4+zD/mekA///A5+Q/6j/bP1Y+CngJ9t/w/7Df2n05/HPoX7n/df2c/wXtBf2/jB6v/5Pof/I/tD9//u/+U/5H93+fv8B/ffzf/vvpb8Yf53+9/tt/l/kI/Jf5R/f/7t+6H9s9WX/P/KTxKNX/1v/N/v/7mfAF6ifL/9n/dP8v/7P9F6QX8D/g/3K/sH///+/0P+jf1r/K/27/H/8v+9f///7foB/Lv6B/qP71+9P+C////t+4v9R/v/8F++vpzfZP9b/yf8P+Sn2B/zH+uf8X/Af7b9q/pg/mf/J/nf9z+2Xti/Qv87/4f9F/qvkI/mv9i/6H+L/1Xvp////1fBn90v///2Phv/b7///90tAD9IB9TPNNN2HDL6wZ90mE399pK70761CPqUdl8LRHLNbHQsVB1mztI7BX2kh4nbYb91Xw3dZLR5BplrritPQQpEE7EJ+ZoGEDXFi1FAe9byo8rRir0/qqWni4qf1K23oPB6gl1fcQzHbDO6rh+aszbXi5FC/1b1OSbupp9bV4YLJWAe4qGWSVWhG/zU0V2EAcVAF+KVdvdey3Z6IKrl09/0BmlD08fNU3LHTr9ZWicZgDCEs6sdO9oxnOf3SGDiNMGm4sSKbdcsyQBXM6qDj5+MG0iVNDfugAeZorx5bpvzuE9yT+6FqhevVvvP52Y1MG6hNk+9PC8wUeUQ1UBVqlhlKJtPKGGBnKrmUJ3bpolpqyAf9JYh2JT2Ja2478DFlcz+8n41PrxZcJKrg6PaY4xyY3ih4o/w6y3SVoHC6uwsJfmzvN7Ns51OjOszPcyKHGtS3cOrB/YxuTCSxVR0uRxx3x0Sf7ksvH/YmdjYrZruOFmS7qLWjt8siis7V841660OM5GaNh5FWzVEp4QOyJOD6lu+TZ0mcuRmZ8IDLmvv2S4Nx31Xaj15UoLRMoikHb54pA6XENKNH+PutgVCmxtWaTUBiCNhql0w+Kv1k0sv1aO40b6h9iv8OYVAsXPCc06z1NgfUUj4h8iViw0ytG6EQ+Z1oa5iubUD/Dn3Ivi9W5tyo2AxqJys6gbyh1zzUlf34y4voGigWHilum8qBKCi3jhlyDFQdmhcVXPHSVNOtfDsdlaez2FxXIDDpCYLuZ8OwKRK/PfwZh32GPp4i0QVe48YFtY+wg1AYf+T8inw7NCzki77FxXIDFOXhGCnkbhme+R38ccAuK5ATjvysIjOvKRgnDMr+2HIvHBNHV3iYtCZ9dG1K1xWN90rejlp8Kb0clr6PJZflSdHK8ZuJ3PGs3Io9LiaKqV0ybyNbXApeZC4rkBh1GOAoC4rkBSK2slsIwSexHI8k7lOwwFpjcEy/9LmygoVY0q3slchaBWdTXlYHqgyNbcsLOx9nPMSJgFctONxXIDFw7Yhg+FtfDs0LPUODp2e+7Hw5wSMbuQav50/qvEjvwZ/Vf1GoVZcj5230i5/UPmmYWIkHOls7UeymLjqR8poQ79zGefgLOLDIP0zsohNdz6z0E6e5g+Bvtwquucp15yopN+btdAE5nw5cXHsLiuQGHWGdE0BNnU7cYgUzHH32hu45hsdUoaEOUEr+1pl0C8zzlgKo8uGUXNuRLMxTMECoe76wNXLhLurKM90Q4kqNXPj6LjCZBTvM0HyN66xBqszh2G8KQdg3RJnFcgMU5bTvRC4rkBh/6jNtvuONV1trbdpj6EReVRAQovmpcACi7a368gSUe1+ES0fuWCT5FawD3dT++6ZN2NtRtQO8cMzyHRvTTrXw6/B50TQE2MHhQ2P7+G+XZRMy9mYoVdNjo8BRqyNDBz6lCwuKAr8oJyND67otEKoC09e0Soh2pHB2tjKY7bAp0QqOX8CDfepDZraJ3PDPklXD6UiQrGVSTi8VFNLboBwDHOrbMCA++czEiTzp/ZW2FdyU1EQOAFnq+EWIJzPhz8oNxq2HZoXFW4zRnMz1x6B+PKJ062pTyiNYFOWUQU+44RTg5SyBqHMXxOR4NF/G7N67B4N1+yKtuL0hh6bpMNGcfF1UP7de7BE8zS1xt9+BTiT6yLhR42PP/wzCYKpUGRGEX3BJoAWrF/HQxQZofvePg3nYg31nM0LiuMVUk4uIBOZ0FJ0TQE2Lvy6a8ExZ0ZfEENzx2Phnw6Gk5JCpyQCFwZoRauvIrSy5DaIpPQ+Jlh3kbhmTL0rZEm8jcMvEwWopScLoVWExgMLxa27Wns+Hwz6TNFZk5DFA+dnMN5xpCx6NTQAPelKUEDdgZon+Utm+Hm0W5HItyJ7JkH6owInsVyAtQhRc7xwzPey8JW7Xw7NCzzSR5DFz3GY3i8XcjE7XarWGKevk3bM9JnZb1UP4lM7qLNC4rj6LMWlCATmfDn0XMKoDFxAHpRi2MXEAnL5fIGJGOnLyK0jmE23fGv4G3UL6aw8hsvxK1/NCp53SHg8t2Oe9ndo7l05SVIXjM/2qyqupE8gZWMeyGCXWiI9aJIpQDBmXkyaXrntA5NYIQCcz4bVw73QBi4gE2eyBhJKOzQsyIyKcb6aw8hyOLani/sFxmSL7F4WYuWIG1azzDIOJy6ChuZB4Y+eVgfJa+jO2H5mhuj4dmhcON3ilPh2aCv45ZIq15DV1UuXt6AuZaa18loJkJWXcz8uL0W+/3Xhw0UOzdSmDoUNzHqQAqB/EiOvER1oQ9Sm4wpyIqzZkDYitvZMOoxV1EGwxEuFTu124LDgwkq1Xxmt3/FK/O4AFK5EhVR4e6ZN5Ggzf/pJvI3DLY8zA4BJ4Ym2jyeAs/JdKxIAwFKWYy10GNMHYMi+9jZgfkAc2Z6tVbjuf7VQA18OzQs5KtQaUd44ZkwD9dxwzPhuYrztQuGS7gwBshuSLJzKY9SRlHuyUcmxxkkxoA3s6v3DyzQqmI3tMYtOeSmByFpLPb49HxOpPr1zQC1z6FVRGKqiMMCG0b8xzeBPZ4wAB6sjkDFVzRv2eL//ty2ETDuHLKHNFX++4fWkpgPXWMW1ATWwDq2oSCaDsGT6qNZ9OgTV88W5RzBVRA+2UFKn4I2fPFEaQkUPzJvI3Cuvy2MAMXEAmtvEtldhTQl7mpdj/5VvfqwEWM8n6dSkd8i08LIpf1SjfUV5DTXPPwou+RibwJxAi1FwhiIBOZ1SHIQJy9PYwvTVsvizko8A/0OYXwDO3zoGf9rtLOu1ofJ9gqw4JT/6EFwSDyYFguC/9KbSbW+Ou8nNLfwWnCWZBsOfZaGFzQas2fFghsduJ3ztEZvOqtuKiFxXICgdERPYrkBh2zAX4UdmhcVmk0rXABi4gDrbelFgbtqvSV93hmFuucCvrJMf59RxJ7q5HyFTRqrpQhNmQHU5G12oQNSTZCXuUlNOxGRjxIMv58lzkkkxVr/unoFQOyjcSPl9lu6m0WaHWf5wIBB92YocMfW2YYLC/X3hyjmrQ2hFKltF3tRVpQ49oVQNTv0p2zo85cQPKCmxAXclVnC4tV9ms5Vjd2rMbOOSyh5aNw92BF9H/XB3DU/2qkVYPntjaO7q4ddiO+E5Yud9TPRvOoNSiw0AYZvTkZxe+9ucbmdtu/F07xTjr6NrGKZteA7g94kCgDNg0+5o7xwzOnVaSQFxXIC51wnSbhmfDsFKYKrKYkHR2CZgWrpUnX2wB5N/1zONGFwH+0Y5CH21ndxhvpdMm8jblOEbrXw7M0C5MyUybyNA42DVOjhczQLDMJyiY4SUfgToQfPqFajr4lGRo/ebTT6NcIANyfhSgNfDmF9NYeO/dcnaNgbvJl9NYeO9UvKQ6y618OzH9MWPTRJ39FBiBYAmD9uxn4VTmWzkkKnBwdqMxy0Sa9c0CGEZ2Z2CJk5qqIxVTnqACsFXxZDkci3I4zRGmnsg7BOZ8N1ctVQQosz0K8o9j3FpFl5gtPVXGzAOW9r5xEbKXcOeqiPVnUpJu4W7h2aFw0EKW66ZN5Gs4gzRBgnWLiZEtm/zZULtl6Hzq3wxTr1O31ASwJvspjm0JNxGtt/8StzctOtfDsxxUFs7faolqsvEVukyzp3XsuKarVXWQ2Xrx81QWvo60tT0Qo7vWGu8GGaKSEci3I40t5SOnT2ML01h0yGhWOlrMlWrryK0jx1+3FGuIBOZ1qM/6yDrfCgxBU5JCy8mR+ada+HX+zGnXFcgMW9oIGYME5nw7BmQ/Gvh2aBaO0Ac19bVcv/C7BlXaio4ZnKl6ud6WDPtKbJ3GNeWfjuumTdq5KOW9aaTirYk81552x/yowMXD9CICOTiDBnIr7cYir1pGRdHTJvH92TxFj54dcrHv3+XYBfG806172zTy3Hg/uHWIm7sfLJR2Y3ES+TeCf6XmWpkTUA/M0d4dqkcdoCbm5FUk45vWmTeRtveBANDjEiVu00XrkdzPh2BDPcGSfUyRYm5WjTM+HYO4vKmtGoQCcvgcpl4BpEHa4gE5ewE1rQTdDGbFcgJdwCdj8YkDcOzQs7IAMCFxaJ6MAAD+/jgMtPbEzKda6+w8MTSWMrQMA+PmtPBlLDRZQaj/VUOzfE5Gtx74g2tZYtiWtfrlb3J3fAHiuz7QA7Sbbxb+vInb3xM2G49y0eN+864M2sfnOPYjpXO9gXh+KF+f8t5u/+A4vA1CWMaLOwEFuBKJNwi66zj5K+u9RpfCwRgLVlWjTdifwlobxpRgit3L0iSNHWjFXmK1VvsQK9d5DzO2pYJnBt0rYc2/+plRnBgs9vjJfxfQXFolTNUHdxKKPMVQym+ZUTkj9QViHP4H2KmezkjfDb+0NxfO/x/+xDaDp8AcZ2CvegKvjUeOQPR2cuSHsa7xHwW5X2EkJyAc4L4QJ435RgtqR7kk7ngU5cs6l51ORpsyLxM3Mg595AvzjjoIS8p57QQYHCzYECJD0KcMqSM+mCqMwDEkurc+I6ieBXBuZpoNEzxL7z2UT2u/vFGIoGUiesAOui3JKfomHF9TS/xqZNtexSQtGmTwl0hpvMxLjjrSDp/noeZDFRxYGddCL4yxo7+IbpXqjtSywUYjOGGeL4j8MMVb4CUmnXpmNKvMKbADXFWAPofwoi7cgoUSafV/5gspnk/wvNngJoOatMwwAVHQPwSPx6gU8e486WJmicTauPDYWkC04HGa/JooE1AP+9zyTp6L8EyjOvCpIw8TSbCQzAozbsXXfh5xlPDSASzhy7dW4Y4xvEa553UCghuHq//5AuYfHyXvht+b29uTf68PUHy3JauW4tte/SB7x4J2dl8wyP5waVXYZlOS+z3VsiUIkE/jZw6WzYCZro0pPBfwOaavLy2BcGR1xFD9xBKakeXIVdqokXA0X0VDBo8JqUHBqk+5Ws+KSZ9tp0FVrjTh74xd5nrH+3nIUFdo4D7sgwt9m3m1ndFuO857GN3K0gERXGSSbU14tFpiImNHTHHXBt249h46NSv5J07V/aJ638G4PsMp0/NK6r4lUE/ILRpvrs58tvo1CRuYqa/TY8vuxy7sgIf/0jbGcCQF6+32lAcLO/03LHMpMZ5emgTL9jdXWVQILBWGJqmWv8vexXIsljDM3f0cvmOMOZstdhXpUyzmDKdtt1IjM7SbsmwPB33ajJlfaPUR37qEpK7HXEPcQ7gRknJQ/GLnTKNeus6Avp8IOBClUs6p3bckU11Up/Zn3XyCLJnUkuy4FOCF67BqWxa1+11dBTjxWO+VbEk29RGdXSzYPIVNCXPODWbRF8pSQmTJRSF2LCH/zGr9moUbzJ93USYufQCdk7UEwlRJaMkn8wcBEjYEfoRY3qkzrjiUuuEhz+pk7ZHZbj0SuzgEQJ/A4TFDEh06A/H+8D+cUkzTPT+JJ0kiJmiZyJ1cdbMD3BHuX83IBnG7QcOK9UFHuZKDrb8CAJksAB1m93M7oTxcDnTH4//o9+Bj/RHADJ7gaEles0p2rNEErJI9AUta1ahYBqBH4O0ACzGKhR+qYXTM63cVoI6IfjlPqWTtwzI+0JcpZW/TH2zKupCGcVXBlEktfjNq0eint7J+k9QaeJ2b+Nu/zrt/njWbbGzfwT20utU6Numq8KeYB+wjWvNMt87qWssKSBRMz2RlMZ3Kgxd0sHb9ixpuYP0L2fp8tUgrksFGbM1tZswfL5DhpIwsoLR9wC9Lx0X14jpUkFDk8J3dDmfvbfqV0zOUixRiAXxG5DyL2xfd8SeoeLdfq/uym/HLQoWwYL/4TTMKBMuj98Yjo4S4/OjkJgtS61PsSVfoqhMXiB5ZzewvNdjwmFRtjt8ReNrbkJxPphwfexOWQRUZn4yP4HLgKtcNKM9NuFxEz35QRfTJDuTo3tHHtLfNXmJojL+aU2yXn2t/b6mo1c7BAQ1HnARELjQBckQFnvZuXt+ThE2FyBsxjV07dIAYXMBFeyf+mcXMXLMZlb6GHYw9TNTEPSeAEpBrKapaXQ2HoWFZ4alKH6kB0kzF84LtxTmUbuZ7DnNW8dbfaa2FHoVGhOixHmNQrpq7ieVzBpQrvR41cl5PlLH8w2KZovZk7tDtEehK0Ks7LLNHyjcYkSlaUYbDJmoU7nK1dMtgSyiHRu42NdKG9tkGl+3C/knxPh9oVBzzWHP5rB81UStYKFkKyyI1XlDOdoh4VrHgn90mMMfkwbFME1gCMS71Xwrq1iXj7mhg95ryaWjlLMyaKUGcoeVKPJ+0pejAI++X+XeYf+qRGcmAFSd5k3XBhJFJz7RFLrwBqZjtid9N79nIqqVV0SF/WJ5j32zilM2ycN51MMoRYlQdqRQV5hk2yBQZtkC7d+WVq8uI8IP4yaK6jCKtFNVMJ5chEC8P+CDZA7Lf0VWZZvEv4msHoQXNvTGlREKRn1kIo/1OMQktMneHyeMdnY1KZVVyJth9D5sdG2RBIU/QQqS1jL6seORTiiwVM9b0La64TVqEywVB1GWCtt0yeqk0DBvBSBz/JPi0H94/4njXpIYN1Y/PN+0y99dC0Cd+9aRuA2q1riSkfk2LYQSmabTqrCZAhALJT0DIWYc26Rwfki3vwHbMWFlC17yp3wLeNmGR6wut3E6+0AldAvCacITefnt/poMlfjC0mMmd6x2fnWupeE9Iz+HhQO5WO/iFiasyt0s0tExE1sNUEasUj9ypZrvXxR1GHeCGvVFYueH7t1I7EKcDV1fgiPyhSZ3U2GRh0RP8H3x3AfmlvoF55KWTSfsek7inELo4LBdGVAV683nLf7PzZJWI3uIoFDL9WwvyeQrZmCD0lY9Acp7KYQuV7z26M0AqVEOti3vmcQ1/XfxRHW3ApQ/nzzhdQTMBOr5VkB/IWLEWUoHQTmSCr78dAjIqVeTz21D5+QsF2GTTCPcxSdM31OjRtkmgu4RRiWSYlaoSCHu/qe0zKVYWl912/j+87aOPKobzN4+oSP3+9y8IV+QMvnOG0aREdlKS1RUE1p/yU372v/dwxpg42bUHFIx1YNaVrpWxTJcLEu2oWdlVFBO2DhVerIoPZVR5uJQsu1djcVYiLj7HKkbdwA9LFh9c6Rwj2rJ3wSvcDczjenQfyzZg0neLJ9BEmvLA1xmPlI1Au7NrppVmVlAZajo8zqB/HzpUgrExin4OxpoWQlXhBv1bXV7/pPz0DMilNtnRl95CX3sgghKYdSS7V7LeV9UJipmIjAKh86QsFTyON/uNdtf3eg6EetY+gj/QBJMPl1b1q9H9gbRl1DRPuD33wqATG1J82ROASi6t/Po4kPnmwZeAqqndUAyl7Ze30M0Xg5/LA2hla6Mxk1/NMwgED7wx19HfXLE/SuGa/uJK/DM+WTUouyUt97xIDYYbIhh9QDH0O1zzrCBSP9UpostzOfhcYTB2QIOZlhHQ53Dq1CjOGktML7F9JJRYzA6gkYsi66aY08z1uIe/mo2uHktcoevaEKPiDtN9FWepR4ZrUdEG5z77sRbRuSZqPg677udLVn9fwFibLZoMYA+HM6q46NFBr6LHxuyEaD8UlC0A0q49BqkoGefGc9tkOKDf9pE+ZPhCGdl5aZglNKeFrGkBC3r6rxLmEL5ZfU9b7BOXigsJMdDC4tRSAJtjoPDqR6BbwF8cetxeuCYc1VEzif9VwhMKmMEMX08w95gfxvsE7lM8ScnGjEoIRC04u6rg8doUG4ZWoBzzsUQdm1a3zmJEPu4/c0oTt7Sp1/XUjaJFrg+vhat7tMafoIa4f7vJchB9q4n9iBn0n0F3I0RNlTOOt6CmtQKwuGRumYn8jWZ64RGEjkb3L7rRM8LBU7ESBhz89/ILCPqDPBHhYlaf6niUCXGeV7vKG1Jqub4QuGQwGu4ln4ImvkUBx8AFfZr1HaNz/lgYqBsT1XfZzLqT9A9q2JV7ppeJhUx1tQOsB0yjI84CH4i8JPffUYDd0nubmPttjUyJ37+yzhdzckV+VaQuuVMfeADrkM+pwHrpEIYo7tfA4gL9cdQuZFOJqeoCEZ1yn5QnLUn3s/W4IhGyyT0W4iVO9cGHwVgU4zcENk9A02qwGl3xFjM1SqTVPNSpT3XnFpiUarKGG+kuS8PzWrmHUJDlFb30kRqrK8O2jXAl7ajBqSG6iMD9TCxHFdQlvBzhp8HWztrVVzP4XSPlLbx4f2HK7y5jBl2y0umb6HBkCCh8gFYMKtdU5tHqZtqvLq5QWTr0QqeH5K344kN3y41o/LTP5KV/1YAE3WGF3TTFIu/BKVdTa7dWX6+TdXUXXFkABpiyOiAVRBdo7vEd9h29RJGdU46Xx9MDSC02MgQZuKz9qOnJrju06a75CkKYpwH96MSUvzG84P9jwyNet7NM1CU8bYgud3Lekdw5/MVQF4HLQaROTEH1aH1aIFKwZHLA9JGTKn+7Zoetu0zIr/Eq4+ErbPdJmigK7jMaqUa7HD4ehYAanKOoFkhVP5JBXGrlfedMQtEcGq34EIY+P4VT01cKyulBxTzyYkXqtcYUCa/r+rgaj4MZ7tLkK6sKN2Edefr3BC2NCKvmwWlhcBfdXWLR95KMQbkJ0MVrqjIbHYhfOsq0Xpr91l0/16snsnKOpwyH4wtkOY672C0ooFWgunY1f2BO6Em7qOgG+3CfF6vsQmHIhb9k4zjcQ7xD96W144Svajz+IOzbl1sHRG+OmLY9HY8dKY2YFuGjvtIApQ5hByQ+xtjJrTeIb205RhT9h5keIIxw4ZI7UdGmeEVzllsgFbZK+9j5DRR3/eNHPME7H2VkvaxwCdGLEQ1xQUx6c0uRGPniJBv7cO4DCb/zWJcJNkkhJSQjswGmT464GHldf6KF8NMKe7uq7mEcXTAEeHROlmC5C0W6IjdZXWw4zpW4q6CzfMi627qypwJw0jRhBtTi6XxeXwX0Gb2r3OZ8W/qPUp33a7Uxb/udpBipvhRGTDZTlWdJsykOAbFmMydckWOzwOrh+/CzO9EAYaKMYd1m5RD7KExTWdNeuBn/ncwGBvNU4D9640XiTiGYUlsZDH+cNK4nmmS9pKtJQJhnKkdMcvWYhPj8nOAJyDew027MgkpaBOCt+uggQXS6LCX4kLAxNQMFdjMGbBRHJwLBukmOyJ12iD11XzdheTPtimv9Z/LRp4TqmcAvha1ktWcl2v3TGWJlGIWHZaxHn6iAxU+lkZfXOfoOBAw7pVrtFj3LOlbIvxuAlLRHoQotkTZCBmO5J+xCjngIaBCyg9raUGwsDW7EUReuPJ20pQQfX84gw1m6xVopkSAC59ZGPm7NMWmYUhJuXA45mwKQdzCy7iMiVwwEtE0QbYElvud322goCSL4USE+6MDJAwYMCkr6FcQDf4c1Q1xcQaouml4oLXCzhXw538wBgFWR5fiw4aKOp4nhIVMryCWzUcDNS+Dm+jT8o26slDUeghsup4G9ah8eTDT2JyOvmkUPogb2LSrKo2mFmUD9uD1W66rMMCuUgJF6aQpbv6q3X6/T9yMWqoRtFK77D+EVJbLuAFWUQp3Rxq85dy5iqHJmdiBxbBDsxvPR0SUvr4L82/m/SqQIaDo9Pz1nmaH7rtiuPxOQJbt8kXtmlFy+RXJT/YPQsjVWllZLSSqKYi6fpvm/cgTf7oBWT/LrRXhQnLDHgZ9jzTCcHEY0A067cz501/zUk2ApZoq7GNUwZ3zKaojLpjhYYJxhlWdgTCV8D5PkePskTJMreasxZkiSK03Sj1JfOgQx1V0YD20QFeqYHrMtgdIIRg4OIikUgEcp21Rt2j9TMe8rkMBi7zwbnnGzjWDmGTWu+ku3vLeymaIdGCmBA2FqEBC4Oqj/537m5qL1ga8uxhHeC1MCqch0JdBV/dfsgIZ4ISs4FeJVRm+BOcm4vVaTPJN7cnj7FVLpd2rjqDDVstb90LgaE+rtEK928UXJhOWECHpfk3YutYUnfP2ZuuUrA89ivQt8kNbJTPee91q6gERVJOFSvLj5ktQAKfzvfakRg0qSG7HEgUflFK6MvKoAyu9dUkIpFUfgEO9kpUlqvmkfupvxz20v4dUGQT+ZZGDHLDG3Owla4DnfT71pQaoG7eDttcofCi9vhKTNJoM0UdA5k2BA00CA249Xvc+J8NXeDv77vneIXASceaBQ85kL212uTQtUdh5GLAC4uFUSuCCeYTGjAe8WrHCgKet3LsTk+FxglwDPgM9oCFwPWwuKcyfNyKIkF8qBbw4uBQINCfi1/n19oi56LUZpTdqXzRSt6Ws7hdRn+FfOBfJEDvXYs0RpneeGh25T1sf7764QrqfBG3WUOIQsJoS/audLSrH/qK2O7eZXIHIiByXYoaMjnO+UCRWk9gT71xB/Nb9HnvSnwjsNEUBPlN3dd7cCoxABAVmiNF2vYbe/7qD+w96yJpesA08iuqWmMoWO3CkCAp7PdJQcA7wqNObV5ExX9q9E/70oGluaYf96ShPU70EIFNT4qdoybc2cixez5ZiKisDyL5ekqwDzfvBE/N52GhOwF9v9RJHVl8wBCLTe+8k7CfK2Noxu1wl7FokhQDi9cFssS19/RF7rgNr71mpq1MZwsVMBCaZltZbo+HZkCFIQOcXbArRYXkXyLIqSRb1xP0vdlBlb79i0uCEeoILXVgc/ALyYZz+QWSsVic86K+f+lqLL901TrOwelN09B10rw8LTJP1TtAU9QFPRAm8e2FAPIUJqzYPYuvJbguxgcNycv/B4hQX0YzUY6rUK2dyQlQaVMrBhV5lW1eN6jmjijebml6Fb7DoWZwbzBtwbnaDogi9Tn3HZAZrNjrGGAnI4gbFXt5LJQswBAtaSTNNj69sMFrbuYQ8cLaq3BrNO45ukOl7xQ8Gsi+GWDSlQV6aY1BBYcHT2C2V/02/va+Sd9hxplGKvWuPKocs/KOTjG3/4snMTeggx+bvUc6cmS0d6y3iNlOw50uDInIxnlsviLmrSTtn+gsitQXv9t5J+jPJTkXxJ+/Yv7n0apZh+SqHR0BPJLpOOw4ck9A3et5LigoIG+hhvK/V7o9Av9Jqo+Oeoio0YA2fbueS2zQbW4WGpWAXjED8J4IVWpNZ2PdcPb4pAgAqF/oatOf6D+gwY0byw+2zZEujmW21Fld/GcHzTDoUUSVypLdcxz+75HPaULiLOB5GFUQvDJQdaNmxpYgLdjpN1LVTOFxesudlVMgRBI5HyNHLNhmEU4sWVgNxSYK1J4Rh/MyXhVSI+dKXNlQNvjwlaJ5k0g+PPdbAdS3LWLmfv9k9V6PBkfoD8pkmvvp53VEPA2PPG9JjUk4ByQQBIRLkLdizbbGnU22B8rH8x84puyUfTVpSdUo0P5CnDRREAhSY70zamykdp7/MZxtnQpNtm3A84hcKneLsKQpkclUMC1X7YupsV0vOLnhfP0DJLgotMwtkuO7LPtqMxQrl1FwvVwtZ7iRTYvbI8Ohi3kqlN0vpyfv+Pcnoh1Dn+dCaPBFRVvpRKxdsc28DtzXFeSZ5pV14WYsepmRbAEY1MsQXPisus01kSAoNY/waOx79ZLmV2HS0ldQn8cpYYki8m9La4f3FygdxdkrWGiy6pDYCUkuMJEwxiGeavGTkY0ZduqgjEdKMWzC58Pj+Y3EYvwMVt98J3sgbQKNNUN5VlM9z9SSrQi/upzW8yGHOAZa17BSWUjkjx3yuLcS0Xz2mHPQuuQPKlKBYHTUG8+n4CnkrCY0co/cpbQ0mB4Gqlbt59zl8dRdKFl4MPpqgCHYstLYnkVaScnRrBGWO9m9JUn1GwQfbwymrOLdw50NNqb34dRs6dZyhkgTMfnd/odvuQQr3wVuETjyUCMKpDGqTZELdcaH23isHEjIQpOgPYQHvtq3+rHWDkEKquBNC3JURcZK+sWly3sZRq05kz8ar748sITAdoe7Hrxr+yKR7swIGHUx/nsaAeBv/Ax+hE4tX1ylkLublSLg35CuSFGXOJjb2AY6OozKfHtQzIZk1/t4MqjPHuAxOgp7akRk9CwfbHT9C5G0v/IBevgdZMlPms9Nm56+euZeeIstATkgAcSA+ArBso/3I2Dj+oovLeYrKeKTnyU/Y2LfSLz06C1Hfl1yW+jwLOIH9exR5g4I+f+dRYIR2yEUqOXtOCkiZz/5+pwwc+Hv9KIXwMwrvvz8qJPxpOCvEJseN9W+Gbx94teffk3NjCSEmzQ7a0XSD/c+406wtzGLJnOwP+3r4i5cAd6U3s6bmZ8sR6o9CGWOVR82PyHKVfvUIdBazlbw+HwHMMt8cWPw4NMG7WVVPU439H3pnyTVgTssQbE6r6BylpbQiMyNkdg6Cif/dDKU7cjh60iHKlgRzuehArEjTF11SqAAAEr2aw6e9yKDX/BcOSt/LySpGEsoaMrUMe2J3Z9QRyLvmOjpt+WSrOijK6r3hpIsjztzGDr8LnRve80UCBbDhI6NO1jodphT3O9IA6ngsDbA8IH6c8uv6pRm6INp14okPgZA7r2nmiUehOO6ScLj0Q9+8oLJXLV6Tfn264bItqe6snxQlKm7nYyNAB5h65X+HxzoVIjittaPqfk/8S6v3hzGPVAgAt0dPv1lehErTv9YPTae74vMkD0BUXEehsDHOZvdtvwqMBgF4bNOSpuuUBi3mCDgqKTZKvamaNguMwAamC68rNESetXU1w401gYcY6eQmWtWoiSMAw+piVa4dfVoJq3VnR2Qdbohneu5DeZeubC9h0W+oyJQq+kYUocTUvSnQwu1PcuLcngdb1ZFuRLj2xu+PKO71v0sXWJzGNYfQXNhQ7OlAGQ9xuLnWpMaId08ud4/ofdfTmGierbJ29Mmgshg7UGXui4vOP+HwfMAli58MKOizZP7qkhS5XOC5xjeEYJGvYEUDFvkRppRyvko87mQ3jz4LFjljJGBO0SYmGt/uz18BQpBYAZSwvdPxwN+WkFkp9C0M9RjgBOP8neP8qEz0DvhPCZaFmYZP29P0hRN63O2Rpkx4I/wc5mPY1hd8HKQehgv8n8sFzEPNpkhRY2/KL7jc/0ONQ0o5E4OY7JBgoLFKAua+NdxyaM6y6tRJ00h4ilks2voT6LuRj+dInpyOV4qG/gtCZJu4YMqm1IZtZQZ9HDgIcsy+mh32MFKTWOKLyFNJR07Qi3BM7WoiLDH6c+fcwsk4yhNeXRgtxyIwBKgKK7q9na2ACrd6ZJp9oW5vs/+1ctEXjatNlgDM4SDmg+lAtPzuomQ6hj854T32kkijhu1DDZ2R6/F5b9YVK7QBjLuO+dWcVtUEtWHf9/mKF2L2Q51IUb+hcpOy9s3VIlVeWjm/vgAjlw57HCDOhpxylHceE/AWg7z9h/E1/f6D/1QIcUTZpqj0G4B9a0g3QHL9HhafyyYGPK9bN2+OwAwZx0OuHlq1l78wKhNaILhLNaVzr6KfCCdPFcd7I+j0rtoNY+vpaEuBSXsJ+U9JuUpo9zb/RY0t4mrYgxz+0jI8FfMRzObkKDHxwC86mdotBxto5B6UTQFxAXeQUhLWJTjfZ8bdTaJJSiNV53JQWfZoZWy3/CwVCB4f50zYhVgrER3gdGHQT+s+jsZqAfFSu01TZkCToMShXK9Zr0qvHCazpji2v93er9uz6efFNkzw89SCkyQUg9EuXI2vBxGY8lZw+Zfz2Y4llO2dSCIG54F5EHtbmEF3JP/1Y49hyoquK9be/mqPxKq0Eft6WfW91D5o11rFeWKxE+xm1czUBTJcWFeqdJ9ARCfrJY8dw63rOMZPaKF7PthFJW/zP+DaJgPvDpmfmyBbAWq9XKOZsR1jOZ/dq/krdgeQZhCB0iKIcqu1UUR9789yQfesyxLP5ag5RiMv6lbGRItoFbzydw9cJgFJd3BmNjKgB4OeLhEbmCUJjTugZ/cwuDmg2Z/gaKBEAoGw3PHRtPHZwOlm1Ozzg2AVCmu3jx+0sA83Yf8uH3NX8selQyJzRyGnes31rH84OtLPYmXXlwEJ+wNJFcGZN6kXGpyx7Tb1+gJTHd391JsAEJUfTfwfO6r88bkHhNrgNzvzeovkaLPr/EzMCTZgrjVpnRFFo+QLfnzc2yNjW1go6LjiacdFi/nZBDNNy+n2MVUH2JybE9NBCH1eJzSxndKJhJAHVQGKPxYtfZnEmRVl2yiiitT6i8x6lbudk8nk4m+TVwVc/UxzUUI+BqGUA0k2uHCbZFGv+deUaaTCR7Q4mmtSBwrQ0OdoNC1AFNJNK8th1cD3z04WM6jO2JzShcJECvKvQHJgKjpyL4UC5Xh/YSUhpt43E7CSSo4G8IIAETsrEvF6dcyFR/qSqARe/T3KN7fuwreDKGmLldajx78Anqcn++K14XLwzCjxoRV4Kc1WQ5N0Hgry+szL/jIH+kZsP7ia0smPjba9c3NB4D5xHpXSaWIQtZQiDiA1xr6iNalICgX+15PA1sIOowR59OnV5mz6Xd41c+iRXFzfWF9rQQp2M1Zee2MD1ZWDrfdQuqyNQ8t0Q79JdLc1ri63ARMXQU7uTv/zIr+DkPUa2UlvAueBzm4SaM1ZvV+ZP08Ws5/mJcrPDxy/jkQ6MJpjCksrWVplArdAUo/AEoHh2jQ0iDCeO6Lxxg76AfQKFb/EwyuOmz78YYGexMqAA/f3Caq6k0M/vYzBRs3jTGjgtrhic1t9wO+E8H5aNHwyoqobbDOUEPXB7/vGhEepZkcTIsQYi5kUzuyrMpiOsQr2I7AP8lLLtHBOzuF/uRvZEVexOGDaVnAH/qZeeqdTd8+NFR+daEF0Z9AuZ45HG8+BEYLcvZ7Gu1ZPbTB0qMpvXz1r+2wf51BitHYpca/J2+GDWBwgy03k5fWijQGT9Nr4Nk0kjUHF+NfF+mTSUY/w04w1bEQqCXsU4GpPS1Ml5iCoza32SNf8QBwXfYw80GOXQaeoBX9XW5c/dSZ+WVpWoCU9mCJwnCOCOwldkKnL37cW9rnAogucWiVPb+GbVPtmg+LjvvKarbnLnEZHDBfiAcDqxsEq4VFA0uyNACdkTvMdFCwg9vySWwmpla9WrfIn8NKFd9ATyZtijTDj6Si7gTCelv0E1g18tqpXKld2txzObUtnCQTqDzhRimgkgXWzjNvvTMs7PY/V3RgNjTMthWZ6KBrX3CEzbCIBV480BHIu3wWnQ44bqRWc0A+S8KkpSX5QiLGCfidBqoDblwmoxjswz20hTd9aH1i1Oowx1VUAetj+jD57CdGdMBaX7RVfO08Pzd2Ma27EvtqDvrGJYGwxvWs/vEKUBewXk93VoFHeRdKoyn9Xz45ss/kGIbmWlRNc7s9aZ3O9loDkAhHbTeTet4toUVIIszHqBp1adtz4fIWmj7mzRWs8a4+9yKLiFtdpndAo6P2BwwIO9D5NsfOFGKiV5Iv+8RheHZza8ntmTUZwS7gpplEp2RdiDgnvLj6yUJjAPL3xajMIm2Tzjjtgujwl1XkxZXAfCZuYbXztW0A3C/wn068xQ2wmpygXXTbiE9I2cM4kLFa9BeJayFAnHrOlPUG4TdqYA4ZFNBg5ei9j9dKKkZf2XP0GU6blL6T6Ka5gxigRjvwbblxMuk1RYKeCuf9GG7fY7e+CoP6hLaAj8sE5SwlJ2O6/spoOTaAbIQErOHj8SW8rXzK2yDjboBIhm2YAjFbTn/qmmXRoaD18/WLGXBeH3k9L9fbo7GSFG0+z63pdDKSoBVx027BczFEWnA50iLSyR+BHNMUCOSTj0OpXedeOlndd8tF3Ky4ZM+kIVqJsDK/6dy0GPxC+vv6u8V3nUMiE0Qaf8BRmmsmUEsnyuwD/JSyswFXUWdQJW7Z+UtBy7OhD3tMohHnqvSdvBGZV7wPJVM/t8uLTs1JnRYVtxR+kDC8+bmzsnCqd/+/Ko1eWothh9AY7JqaGqoz7LM2WILemUF4NEl8T3S19ROSbMo+x27Pu5IBhH4L+KDBAV7cVeZyCrzpXEkqxyLT9BrsLRzr8878dzfdtmLbQX8cujRovdMDWV2s6K9ZLEhMjkUHsPcYJLl6e1HM2jVvOx0v6SmlMPn+FEVTzn4IJ464j36LIIwlZur7ZwUJWWh0FAv3OvmMZsyoWgLT1AZA6vWjfVZyKea/EY5qTXm0Yhvwc9p5SAJ48Sa+x0TKcnxuUwvyKH7kI1+blkmi3pcnA39QTpJFxsMutFFnRneFSkNb2suJKR5+P+OWl0m8r4or/yqa9pqJ4p1jvQXcbjfzJ5o7LQseCA2Bj/pP1grAEwAIKsIpPTbj5lAeskZ0jInTbvg47rdBAqA8JAEQFwJ60g0x6DBqpPUqrpCg9gBA07W+TmWsWDmexbsT+w2xzAsg2HUE2xIuLx7bHRkvZ+/ibgW/rbAj4L8Z4oiwurtmVSpBmQz5IyMo8T0gp5HWwSrAqpJEM1ktLSGyu7K7mroCQjaw1vlbrSJaa9qCqJIHGSzdo9oZBY0C8uk8ER69mqSGLYCvPTzBJyzsBigI0JA1TpvARJ5AYj+/AOP9VLDp+yw8jGFT0S3w+vU+BR6poONhH3f0nQTWNCGdrwqbgxLGTxRVuxoT4ge9qS2+7u6+l1MudiiMmoNVroaGWOOgmXOCJa3Kw9tLXCXy0EphDZd/hDqnfljZnaBB9Xm1M+P/tbcsVhyO7K39o9sB65uZqnvxowJgf0uZUHozvahzzxEPhJrm6W7tVudcw0vJzNre66w46BHeJ97Tq4+9ckA+s5Yso49eE93zm3azHusDu+E6qBI1JdgEfI2G76iHVfAtCbSpBpAy6TKHzM5RbreTs79T/8S97YsrvN2y94Pei+kVpu1BdyOc7KUJdraCv+A9Ea0hFTBrby5sC27E6r2e+/p9eO6Mf2EdNLakALfIm1y16oWjc1B8OzkDVfVGbqzr9FctVwTErNInJ/QY1blJNzxol2GamRN1bMiqULi4SNLRNPKE9tgmaxOnbX2Lbjnv/0raZrp659knDWKMr86GDjRMpVza5lToQNJ1gDqhQhr4bYF3+KsUDwNsJDK0hF0FG2wgEgL3thq6RarmDvTInOoiuf2VQAB9aXsF997GbWYvwZhMI4S71ehjFAId0ajTGZTAQ5I5XYQnDvXKoCIkJ6ev3m0iWx4kvta2XEi219ZaHYmgo5oub0yZ6UqHI+cyUfBiCQM/YXTJS8d6Vob7tMzmWM6Kv0GiNq/q+IwpkSCVhEg3Ue6altsJGkMI0U4wUk79fwkPanUDSbIrtCO0sNm62FkSgc9TzUijXyUqgz4DTu9P+i76nBH/WPUtLvDttwTqK1OQlXWWZNkoicAzBRV2MoXiInhYJir6MJBVjKiG90KjIA4usRqT0f7adJovZftV75mXFGZfNkXsTJAvvvvrF+/TUvL2cWQwupjKUq4tzO4ywkj8bObU+tCV4qFILxOh0THn6C2+Y3rNZwI887rsV6qnUXH7Og70T7e628q20cnAdvTg1x6gWs2lmjQ163LNo2VlB1Vx6l6Cplp9Os6UwvLCpqrMSbeNDWhnnXp67FAr7rrW2vWaERoM62/DsjU0TDWoqOBxh0vwTdyn19QIQZWPqOukaATMb5NwBT6VnqXqYqKT91Tjq7uUPNIYsnJbBGYeyoJuQs7hBFSeiWecEeXm1N2PUiFzLEohb1aPr6xmQQbzGNFNpPrxqnr3LNyxewBwD/rRnGWhtL4ALSSisEtQ02IKh1/wsSObQqV3X6lvJbHQckedejUPB4kS47ZPlA8kb6Q+GEFXSKe0CKZSUWN1MPJwTj1ppOdk/AIt1G58bmD+dqgUfc34apxi2naI8K2hl6SU4wqzp6ecJ23iWXBufcEJa9NmyfrAhhKBShARraApLJ2lNzTKxXAz3muHavPrELYvwtcBhzb/bvfH55E7+qZvnQ0aymfR+GgV8Pulg9+31SXuH5jHqG8X0Wwlnu1Q2BbbsS7BMDoOYd5/wojheuYkRAO//cIDTKkQqO1sx0kWc5mLnNeKs6WtIxZzRSKQiAH6LReDKLfEXx+MLZKjLLDRSlSab8Dnkl43vuidwp0RBTgbCL+TKq7qev2CtXoAXZRFm3kZVkz3STnxStdLo5RPNSNyNQKlc0j2xMBk7UJNI2yZXV1c7qryGJ3WHLoOpFXa0xsI+Fc8fi4g9j/gOzQ+rZL/V6o2WgaxhGH9pDRkM1tmwGSNSOnWeExmli8z/Ky82tm0/XnZeo2IyFuUH6tOSRrdcwYg5A0G/K55EwHl+Qdf5Pyum+qipg8MK/CKfb/nESO/hlbz8BPiGxf3eskcl991LSXx8MqF/zF2KSMRhs8mXPXIJ0MqQOlv2wu8s6fkGko74YyN7Q3YjnSaoiCnen94xUdDspPAY+m8lb9GZNQWeKDhSLX+143oP+4aKbFoKPnzb6sUYczTJPwz6OfQ2Wfh7TUSNGgFFgyD6FOM7v2KG6LqLLQ/QRfkznskgfl+h3FAK8ulaXhWFIILvrm7D0C03n6imyoBNTpYzR020EfDu5aDDQlIuIqLl4KzG35dY7ZF4B4EaYyl1MmZCWNdTPCe9drpEm0bm0xHmZUXIV03OV2kR1Dt3snNzufn9ad2qfod7n424owrnBx3FuYJlh1cgiaUBbSoPl5X1StkKfrmG0MsmNIznh6EE6wqIc+EVsbC6KMPgznhTgGM06wFpXtnnQTne4lPGfsGMMNtPNxefBKx0zlz23FSJeDCjWB+xyxHiIiBbFW0+BihaQMjaGgOPVZQPt862kX+/Z1iffAgJLODjA8DPLE8Ej/qP0bEKfBCuTwV/XgT82SkJE2y+7S0s2W5dxIHBNDexkPBWp4kpqpoTnzIyQKVzNTrvOVD6SZ4Newf4p/hOumTarxpSm4X6XV0P0Jd1/8sjk9pW3lQmLjRv1b/A+aiTf1b+N1iNPmjm+pW4SFeLgQl499I2DA3+p81hbbB6VfxR7kuu2DawDCfJNTWCsF07O746iiLEFN6RjjICpG4SzBRaT9kQGvKKPkYGxdTuCOa/FatZqmFTVUXyYyDSFiXuApNVVSTLJl7ck+M3Z/352ezVEQ5Gr/AQf6S6s0beMy4VUK186ymARv8YoBfd3wOcpjEnFDXi+Jtp87qNSqiHkmKbk2+pdexVh/d8wk4A5H6YgOvkh2rlMcbTt6b7l9qwncqXIFuZdJkOqEu1ry/BjVXyam7j/IB8SlazjzeueZFYJrAhsatyVhmWgEgHdap0km8nugmKTFMOZquFxYSFL4jF+jBnto8C3rg6nM+IWSgDhxsD2grJvHoPyERjlYaBgbzCSUeWKHC99XMhAk6l5UJBKTh+ovdQzX1kbgp3qhVdvdbhZnfOHm5XyDUplmqIiQOdpf+wu1UMewqToVCh7Tkc0cHUZJUyYTTcvxldERtF/hMaDO7G/yOZDKqO+CGGCQBy08g8O9jzpRYsOza4jtSKHxQ3ISPr492FVG2yZkKWitBuDsDUN+Nn2TCgJIhgZ1W18pmfqJz4s1ZeJ9MnQesxr2Gan/OVjOTL0Oa08JJGb/2h8U26WWywnqNpkPv43rlk/NXShtr4UanOtjE808mkLbH/LBxB/T/qbfMXGFLObA1nQNr4Awc7BvzYKDp7cg/JgXss1jEcW4+8EdhXcqLIk7yCCo8gK5Fxn7S0ZtmYH0AqsPcgjcYo/ak+1ufu9CiVQlOZOvXL7UNiNL+vGh6dv9F/be/wh0JqsGAnNQ/6mA9j6GjODTZJkYc/NmS3taDbykkJsiUR/1aJ27akGHBPEgmtTAbGf2ovib8qT7V+4BBls9uZCGcyn3sLV34etMa6wp6F3O7c8Z0xqZAbnJmgLjS0ttg4m8tTbM8XBkifUN6w70bDgZXVIMznR0XopF/uH0QADr1xMWoIXN6pctV+UCMrDRdPjwECs2cWs4+a37Yh0tBMrmnG/gkPfZLOkh7FZX9z2ElXSISYQP/3nppCDSzGU5mTB3c96HFkiW5EVssJCsY8ynrIwyVN/D8TNC9ZEtlKbDXRn4mXvSlF8uBegBsj6ZNm4iR/4JjY7XaRMc/iuKEHTxy/0IwVbmgdQFX2KFHiAHv11UkT4npFC1Cb4/pnLWWCh9oEZ851/Q35ou9wnn4CmxiJv+r1vbSN+zztNckQTrNFxWcqXe0HJF6PKHTGWJ5Akkaq3mtMWbpvUvA2+/OXfMsXIQ6PkVR6kxajViW1lg8bjzUEifDSMB6qQIqYjbyrZcUA3+eNq3+6bVeMpDqGABQQ/PLyS/YnU1xSgvhMCdrrkgVW2fG3jRdotOC0acifEux2XY2rV6UPSlmeITSc6MHPGuFLYW/oldKAXWiPBRw7uBk/gB1SydsRVMjr3/2reT+O4k99BPt/hOWJAg99/ps+AwL51oq2gdzF5Humk+ofxg2EcAgxYUQ87oguXSmuZhjTB3SYf7Dil8IRMOcBOxvtim3CoaAjUOgNJ21TLlTt7fvtGzl6VqaIuu92tj1R2p2rbVktPqX9pqaTnZDzjyFB3ZFWIfh486kI+sm/ThzkfkwlvqYGVRnBIvHjoG5ID4RYbofzlH/X7FOoftw8iEo5iIkcAXRPgbw+bYBDg44rxjaiY5h/2dQto2U7ZFBJxPI7ZP4sen6SvnrBpuVjvnZksBKilLldBpUHQIcBiC3Oo8eFGB00t7by1czlKC/nRDnK3yAx8SmMUsj3bwfTTZex2R0893NG0MgkNIozt6om5K0byrRcbmTwY3QMy+PPfBLTvexMihT6a5I6DeI9ZR6x/ttvTkntbFAvSQwKPaymF/GudNpkyCK5+yXZ0QOjxJPM147iYsJEPXFUtDqkK2kM89K3S2ZO75pwlyZUAYAq47hrdW+a9yU+fV/YAq172MtrRfGzyQULpa5j12H73otA4uBHpp5k25pKhEktExAYnSZKNk1qb/i9tD+P2cdsmz66XZWCjdPym2XqfS/zCGfH24h/KVC8YABiC5TkBzB8WTz8XNAjBfOqsWNwmRRW6UYGV09OCu9Gskrxipz78v2TQh867VU1tLu3Oz7ZMCF1eI1cZbmRqASPBv703CfY1YURAWUphcIXxG7fNPl5ab75fffoe62YjRqOof6x483CXXapN3kPkrHiFe07/y3wsynWHKMgfMNJB7onMsE2CSkN7FhUY5fDvDKQ0JmDlH0hrhvZPzmi6gzrEMyZ5Jg6JdShygTQl6Yrjf1BwvV/AXYgA9sCzDAbU+S0cv6mIoGatm9v5AvldzPK95ofo1Ye/Vf95ZYht2g2tG7A/mNbBWPCTPM2xLkXbxJzYt1CsqQ+uGYLCwrNZNluhYjpmJhbSlxGGiVbDu9g3Z+A1Pg2NNAomfkIZaBadiq4ALry5588SwAqU2c3l0zR4biLh+z9ohZ62jRnbanC7vgPkfana4ZjI/4l97QGVWHTZCrOyf03ewMlagREIJHjXSdEkZxEsYct+OilyYJ3Oinwj6QXeAN1nPr8RoA3TJqScjwf0tBpc+4g7XjrZbqkRFhQcmuTr4Sx6qPiSb0JYH/oxp6ARlLftqHgS3RmWM8+ws0OTCbs+YC+f0G5ua9dp5QXK3Kq5lAIb+RRntOfFqN+HMmhkgOTpyLNZkKYw/8LyQn983Qe7dMSMZp/7B0FpckZi4yF5RqITd1SnOfEg5OwPDKIimwK7wWP9JR2RqzlbyyqpB6Rq8/+SWivvz1BCi2icgLH8RJp+oegS+2UuUNfAS/Og2XmRwssqgn8k5o83CU5jsU22HDskAAulWn1RdKjRA0DwgMCzFPPBlkOilAD4kkt9CB88ZqbJxxdbYeHTsErLkkGSL0ro2zbKIZCHvCGjQ/jwiC0BCfnE9VYc7+hrNnkw+z9lLQpOv34ORCvGsJQe5v0V7KRK6Kto2tIQF9fII8N8ufvXWWgqVzHYa87Gs8vfJhtbUrJzUZ0/rNMz6xrB/c7T0gMGUBfklBs51rID8M1TabY+uBEKnMX+p5Ew9+5CiGOhcGuu1GIXPDqqWM7qVsEFEJxrqRSEGBSUwiJF1Tv0XSDfz1SZx0hJuJTLSbgLYMuwYM4dabWHn55uoA0zle9JgcPIPcsxD/G9M6Z68AXDOBATXFqgd3c22wznasejh7eCF9E0wOtknxyGQdo/PF6ApKArk+kGLuVTypCya19sKxjBiFdcFpUMBhbKJEBfeLAfy5Z+4P8TyMDADJAbJ+l62nKfg8XpkzXZZWE5v6HwnAYhWz8jXM7nHhpBtuWAWPAIztg9DZ9EY/7TRuP7uw2Q/ULmd1hHQuCWeCk18eD16X4jrJhmKxr8BFMBSoZf4Rk8pJnz6SVL3EGxOSX5qcWGIQhrH/zhQ4EuKHcmpvxcApPRckR3VYy+wTYpMZ/hwOXOCh2Tan1MDoCluissBqu8YponCpSE4yJXBl+p1OSya5UysRJ1rLFB3BfppCM1pKJFIkalQJUF6Tw01JC51Br1LzEObruxM27yA1kpIbcnY66ZpO83UJUPL9+xYgRtAmKxr1iWnA+w+GsPuvU9KXgpoe+EIDeWbeTuB0Me566RpxRP2Q4/TM3yPH8cGKF1DgBEDH61qr04w6Vd41WGWvTo/fMTTeCEHX3/j5b0GtTMs8ZOTDyvTlELyts8KVZOB8AZ4y7LYg79ZIGTEAE+UIPFrO8LOBYi8R7jOaGRuCQ2Do48ZkeLU3ZoVMrF2sEfu66K9RJK5pYiAZxfz4O5GsICAJyZKNW6d7U9rA3ieNq2f4a3q+MIbpuliU5mK6sN/ty918N4CX4QbpSgPIy32V+y5a4YWs6bbl6gjwHUiV7/2b8UVcnFT6XZHYouBSUjGElnm16mLsq9I2tl5/oXq8C9N4tDOY6eSu++V/upyy0bXixVSDY77MDt833g9HCikgCKcFAmLQhVmg3emF+1JyZWIwZBMyWGwsWs46hH1HuACqtvp59fvMYccWf6vGSMIngkEdYJGblsjSpc6BEBIPJ7Icu83ZVh9k6hjkGYd8E+jJNGvxEYEdYBJ46EIpGRMwZjQDgrIZtNnPGHrHoWgQhMhU41iYKrvCOKM+yKvSivg4qtnTN1IXirzOk3Wz4k4Wi5bGYADgVOZ6ihKtQUvekNLHbb3GZWD8hAMuRpZOCtzzXzpFrQrREqkuXFveunTOmJrdFdpkbkwPWolEolBHZgiQholqDk6ReGOfaARSyHAwUxb8rqdctugObT7+ar6fFVMmX/AIJtUz7tjz372T6jsA15vp7tmRD1TUYKFwpUgS8fQ1BXcufvIdZBiaAlAcrY+2al+pl1M1dW+zp5zJqZ9ZNTuWW8tQYV6VKRgCdOVGbZTYpIWaHqtICxsXWkHLtQvDD4Am9UmsPZl9YrXHQ8nhtVTacio1cgLDklG8CwStJi9my/3qWP158YxkVWbxpVP3iF8j07kOrDo7L8kr0mqhCbgEbrhLZhjWiOUACXcCc5o4kl3fw7BEh7aQ8tvHNJXEEkIxYmn1LrmNr6GAXqa8x/2PWeyK+VglS/nxrjy95EZPoAH4RplbVNedc8UXX17Je/hhMf3tYH0w3VlsKw/9aqfw/c1cWTTiTs1IdlufHS+ioo3mKyoxximmPs65DNq7XUJALw/hgISeqU2CSdVF0XU91ypIY/QnfytCIXHWrY4hBPcNvWMeuGSPu8at98ZhCONFp5spFT02teD8ZW/EGNTh1tWwUbCJ7tmCuv/dwieATEtsJklm+c/vXitGOowyZ56v/wHoHM5tnusZGydAqFk/4X/aD6ec4H//4oeBOVvPHVJyNkbFvVbSM799gBtYuQbnERrVN+++Y5adWcdWG2ZURos8I/6Ot1Xmcql8boiJLhNS2IYgLd9ejOVLXPBRB2YOm4YIdWhrZ5lxlOGDLwoqyazzXn5P4rE21u0dr1D5YlKdEvb1eQPssV6ke6h/5bGnN6ThumNRBEadT9iySMCX+kf9FsHJ0BIq5yGkakmCNp/qyXkkg5tj0T744u1PVibMcYK8LrqjHyS0CveIiMNAC7I+lSgzel0JYQ786Kv9WVBD6hbaEAEHZGWI6CWvZoJ5tOoV5MV0QxfJIUBH8EbkxkfMmRniaJYJNLD7oMgIMNWPC/gPh+UY6w2Y5alu5nCI9IYAlxcGf4GpgJuK9WQjGdzuYsuDom9R5AED6P2KgzqYQmf89Jr/TTFIdmjI4R4bSA/bKf6EKk+IYFPPqqymtlpcq2VaRJWqxlkluGLzqequEFbN0m+ucKzX0qCfCH/bK8oKZrXZQ2QCyT/A0jf7wjwKEk7RLYhcJuXFyETCRnq6UyrdnpfSi/tS0iXZCj7G8VQbyM4Uf0p+WKzGiVaq1dfGzPOr7hx5rK0zIqqSw2YShvQATgvw2SyRSqEoxY7JpKs0fxyNmQBnSYzRR0q161qlQfVCpfkCQaznLtRinWdZX52G0vnT/HQnrbcyQSaRDLblDbaJHQaxb+BnQMVJroRJ4drdmkoGXo1QGKttSRxRLeVKG0EHsMVDVzErHdU9+HIM4fihDM0ImbaV9cJom9TihrMhI+ItdKms3r5pvcfTUyU5yw7M1DKo3IxJmtR2O0JL4zrl9fsjvvH8wri4fe4UQJDSiMBj3oBxAVgqz0CaabJP1tVqY/j6ykTPVqX0RdEY1efWmZMn6EFxqCQTahiYYwZqrnAX4HwuqYFYxHrX7fb1SUdY6JTVFqSxCftY9g2n17YX0rIY18TPv1f3qE7q0ajWF+469O0ICnTkRT1vV9UnAe5Eu5t2j4nVRCQcfB4Rz7+DGgx7xgkV47zWtBmCxSK66LBBt17Rq9mh/HzvfpbMfIu3TSiLGpiiob2iYI21w7Elkiv8LwKLAbH87I8K+Y1Tn7S8H1JmerMN0sjd2FGgyXUXJEa96CC76WKrnQ8j3MV+wpN65lUxstgkbwwwuOPtCPZTA7jk1fQt7GNszvH/cTtQ4x0SRxSKWkLgWmMqBSjXKMb4hWfCXAj2Wbkgx9GF10aTb5S+klIToJbKAN+KakDNIpIdbZ8C0K+BzToFAeiAK1Iyld5FZdyeJ7eh9u4nax8gbgE2nQnQWtMakOJKqkzrAYvFoId7EFIZl0ZnJOt56wk4lhw/81wPjRSAg5nAvDW8pSAAK7FtSIYZE0ZxxCq+NUo1CV3OV1oSc9M1cUhCHtlKxhrebaRDE+XBj1BjxlCtnXuHHHcwfPzXlIuEIihYGSFV9LSJ2gqA5uAhvhV8udmyaxhzFmYJGDf2UDkA4i00CPpQSP+UHxvTckDqt/N5vN5oHpDJX/FLlMr8rCxnGtVQDEQe9FicrEyz72o/Z0NQZErTAfsGxARfQ4Y+2z8eK3nGgptYPkFo8MOQOk367PKKR099pQvqncXZjbjW+qAXLG37u9s4DIttep48L+y7HyG8XATmZ1F5vhrROvsRSzRyVjk2DdhRJcPSqb0spmAheTO12XZUtTl8QQca9qzaFj4nbg+suP7CfMWdD/gycLOBLzU9d3qdzTkUwZtWBrbx5MwSiw6neYLRtoJuy/fD3mD1+nNXOwRDPJ3mvs4P9WEjcwGIDR0eaytJjanQ0ALvfUwYtexAFzRpuBt7sWVKc3t/9pabmwybbe8q+2p371kiM3JtQiFefUWiJZPJibswrIQr+AJsaN6Hu2g2GJ+dgdXth+vIP9HSF1C9PZ7+oSO/WzgWQPnx9tuADCogtIZZkGzuhUB322ZWCSXrRQ7TfyY/48uhpk1Z4IiIPeixH1YCMLXTTD1D10FyCWZHD6ShvpQ94PXW6ALuSHumHxkcJZ4vHnzEYNaIJjV+k/MjuItGRr/8iEXr0zqe4v6wW7XUbZUHsxjZf0WHtuljDx0jpC/1ced4h14hu9DdVsIhootcfWkUYZoOHinAASXT7JzZZ9VPHUOIpPM0mm/aBPNw8yoJZ77yRyTIZCPUSX1HNy3Ax5f901JumcFcu/7RaxDeogKVxjk4kt4U1FpIILUucXD4okadj+z0RtZD51sKSsNS/vM3VLG0yyuBV3Sc46RZonfU2PGE7Ku8t95DripgiIPRRFzERRy6IyB9gHKLY5gGkQUz0QAh9lBmwHmKwtvtBs3mb0i+uh1Ty9cub+/i+En0psmHXXnLXRbTA+blkvIHw3HhOTLH7LuWlSP41fcKJ4JWgIhh/qAJ5JvDrZBL52VbyDpg9Bs4xQgj5gcSB3L0e6XEghJusYarXFw+6NRUA3t+UlKDimGbinz1C8AzZX8JRttXpnaNDQsFNSFjJYQWZAIwBeE2USITHplE+cDRwngAtgBVKyFsGGB6bjDjCXgjMVJ31S+j2dH+2K4qVbrtDL7TO3o5Efok/uHqz2mGTO5TrwAQgAyxZM/IH3bqQf4A0RjtJsbXAcFTToih9pT5w9ubdwwAmKZBlHhqJny9kHadTr8+qiEj9+f8WmEiXLvkmOfkydIUw/jRYEwmtY/yRmQI1SHvtQvVgfYc+8ZGtZhMgcjCxCAPRjFKOzD5q/9Sdakz+rb9hH6JSLNByEi0M+L0J8kvLAHtQCsNNaJWLXGDjrr+E6e6ScR1J/dH9eQzmBXTJFfDflSiYE7A9WruXu+K/ESQcbuFtlt8OMqcvIVngENOONOUypkjOIfGF7rFDu6bGbXm+tFzw7lj2uGl86gFVsYlAvJqWf9GvGBkj484tLP/Y42D7n80GdkyRCG0TkYmeP4x1KX0N4dQwCD0Yv2Q9VQerY8oTgPvpLOQJUCPW1M6OivQs7O9dQulqAaizZedSs6r89djv+cQco7/5C3Y3PKBgJL2mF5LSdxZMKsyVJCE5rOZYYpDIR6gzP0fwO7chmwjVFu6JRZSSW9D+M5/TsslOfgZXSEZqqaVULy3Mg4PxXUWztgO6nGOk4ZGTLF5IwfA4RvYgnD03gqdCYqpIYgAYglQvJiFwB54iGsLZeV16iySUcnrX/w49me6ml+BmZCR3uRTKzZdstZnTupZWtQjFuB9qAuA83Uj3Z2tODqggbiairHoZclWqbsVfGedzxGeI7T8TfDKGhlmr9RMVeUyD5LJyKMNeu+dxn9HVadStt5NZ0r4Vm+FROCo8chaA5bquyK00qcdeGaiYRph1DpfoUQwx7J+fTH4vF7CEwkSKaCEYEaQKfzJ3lADRcb+ozH4fCxpj/4uWSFTMzRwkOMeNUin4+dgkP/kgomxgvG9MVkvYnX7HHXnJn+bKUUTaWYrZoDvDe0HTJ/SKJ5voasANFarCMg/bCI6s8xUpVZxhBZ60gm/YbZ9Ev+U3ofgpeGLbRb2NmWlpzlGBN64JyCNdVpRritednVM6uOqPZmTqKuL1kEEj0Htxap3w5SJUqY1G1e+BEPLVmGvgiLK7lzbdcLNeXV5MjG/YaIt8LGZFJIvHyK33Otz9EupenCLMlAwPXAk6wnRHnhn6fNMa+tvTJaojMJ8sbg04LNqxHcgeeenWFgqB3Rg8WnPrqUySIA9JsYqsYdU023PhkUGZ2duhcthriUnKzZ+KkbJQrFJ8UxInAvspWhE+BFCM7sC9ABoCL2weJIQAxg7Uo7K+XUTAf47F/jMFPpyXGjOXG0oX3yZCWdObSa+XmJluxt6E+9GnHdwTlBXEN3Hkuq0Is9b9P2yf/s4CXFRerKd9ceT0AaJRNAoAlIAIVhUWts0+wG6OaQbCcbap6834z9R1qprXQJQtmzt45jx0tPNFq3GF9gJQgD1vssr4YVcDHas2nWFKHraiDZBIUkcgibAzMbGu5Q0vpCHZ64QtW0dgerD7aGmgscdcJzByh+BGAoPZlhYRID07PDrD8BkGSJZKObCADpvGRSqAUyA2HORt8HW+TRCHlf5JWJ5QYCZgVImo6aIPIxCOg06c2FXZisydZ5GQqmYWBQwpdOKeD6YSuK1qVxNUkpwcb7YmpGIjS+cbtcucr3q3eb3O0B2zbcDd3JMu38FhPN5L8jcORi33/zbsTz3CiHx6omXvdQ1ia4mS0hZM+KMbVHGbU6MHg2ZtsZ8XJAL6gGgk0OdDOpDnzYFiqMqPQXyhhUIS0Rwu4KyULZ/YsA/4EHgXgvv7MXQ+LMovsU5RSDVmQRu4o5PJyIxSCGPLdBYX4h5leLaOXE1/FH07Lkj2jpS9B3v42B7q1vr0YgXht6jtMPQpwRHn0MWYV7S02wbEBjLsPODP96yRUJA0rCXyvg+KCSrThCUP7VQKmAFfKg+F+CasjaY8foktPuSz/FjbelDqNQjMkpJh0W4FGtIs3cKN+KN5Sj656j6LwMBVZXTtOeGp/lL1i0Wfs0WsBsAwVFV/h0Kql5NFELTIR9cuvcrhQHhs7M4QbPDuMtAu7Hp28PC2vlwBCv6YpdoWTXd4m2GuuxqNCEoFq5dbkM5v2Y+a3E7dbMIxBSxUO7LWSrTOtK1M3Z259BjNsOtqEgDhjNNExxoPJQyRoZokkKZC3xy/yyW2z7Mala72jgHutf8/NMmifZKRdmAyvnzaa1pwSKDGznHz57ve5vPe2X1CbpPX3iJe11kHXZFbTJLd64Gknk+QyjLtGaI2e+S7+svI+PW9P8X8PUubKg757Op2pbw/ikc4d+zPYktyzsKqEsoJBpT+IJNU7o5KzaIKB/Rbhc5AkNvQy0edLpU39JZlefHM/Vo7OrIfekMcv+m1kDKvrouTKaQOJh26oGYQFxWZOntRmtUH3kEbOh2jL5xhSpgkJmKOxZ1XvOkr9lbdCbH+nsldrFDod4HriydpGa3frEG/mZrrnyIUOrn/xxst6q0hSsy+IGOkXQpMgfsvV/q/BHb2lY8eLf/VhY4oQCEsb8rakIDcyvLbaqn8kDLDISBVMv/klM1Q1eqtxvqs7YaHrxO/tBPp6FEg3ZHd5gTeZTfEpNfzyEJbg4lIe6aHETHoO9XnnCyb7IvXj7UcXlH9fY2itgfVricTez/BQqJ01TLtjWSZjMFbz7jiEH95sghAU73Mxn8wC3w1QErnOm1nnfLjPdznYKaRpM95dvqiXGQz8vXKAc5WqYBLV8QGeKhBvy/2pfVJTks7wTKmgfv2Enpqij125AUZ6stDmrw3ct9yayVgXHLUJ8jCfM6+ug5KC7Y3XfFsHwZ9iPHdG0uBD+5qehrR/92nd/GGdHss93G897H/DKik/QssdLmyiVXF4WSjkJLjTgPpGzWQtoOSjI7xFr7irGYUyVsRjpn3mapE0W/zYs8jriUp40qCm7V/sBMu1Zuun4BQH1vb9yHhBPAFplKQjUSZB4bVjy1fPjYUm9f8oiw1jqt2jUcS/GayNETc5vP4SGAuwK8bHNg+M1QJmZ44uTHKfvXJhoIKGrXQMKXl9zBhQEW38Pqghhib6XLtfR4DpbTeZlEjJZGza07wOymeJ6hxIbDHFmwTGZql7uZORIpHD2dRv74Gx0MUVJ1o1TqhSMnmaK826PEuWK/Gv5hoXMrMWPf9Ny2h2yiMV8SKZgKyNZE2U134EQvr7tZCSsWP2NQ1/l1aA1n/9t0n1c2LyDRMXWOgd+hh+GqeZ6AlSyaL9x94RRwi/6jmEMuEjLmPR4W0H/r72o0LZ/4KR/3PuSLihxQBNMNKtYE9d1Kjxx7PlF2vLTqhyGmo0wCd8KLJgKgdxPWOo02ROv1dme0aHvHIEe/utV5Kvxd5BSJwhBnxpNS/pSfIHTk8oiM01AXHTJeeYc1UNvB7E61LaQqZuJyml/pEfpGO5uFTRuIw4ETlP2pMK1qxTEP74TOjMA+vJ0xD61RLv2qmFODqUImjHoltjAs0epsfr2me+BQbo6oxn/BYGPDXes1jWY2xAdikNJLKO6POomAKIRjsNeTcijBGqx53a8wnNcPrv16ZtOgNVZybFyna39cK6RpApsQw5gxcm2AaAYPuLfJoBqEPYEaVQa72ilq7ka1bSwo3LcG/gu3rOYDl12gMMruwQwEplVAYLN/wjipl6Y0MTB8AWjyGjY+dR7woeKKTbv9K+0Hgxu5xlZ5P3snm1OcjvUBy/NfyxRawPqkOVmmEK2Yjn4yKfqyDhEzWIsvXe0Vky9lZ02JunjkfMfN9MN5+rfrw7JJ4avWwPA4tizHL4lbLfH7Y9GNMK4LBlol1AsrJ8ANsePgM3d7lQWF5pYsOH0oemvYqtmVw27HSkmG5ZNW0u9Kc0VPZAYchGfRTW4fQx0VSFpGzZ1ZrE90WE/bLNlJKUK5gjUAccXNm21bILFU5JN+srd0N2NtLuBSfiWkKezb20KEmkRnZwz2IrU4SuuHjYdDLWkCSjtXY8D6X/aSkLPUhgsiEgGTluHWkl4oVxJ4G59HRy3SmmFBVWPwc/e0vU+dzHLPzpgCT6/E16dDKCNj+h+y0mBmpg+hSGytAa/Tr35PSYwbOSNFvosoZRkQ6k8CJ5jIyknxFaM8C2n+oMsadZDP82EAWFmDPddQEUaOPhQ9sPFYhwco39FwseedfYkdvV3FYtOdVNc9/a32M2SHlAsk8Hr7gfuFkCCdAdPSilmit4ZUcz0sOT4gka8NLdWr9dtEx/+47tuzWGjDZvM27opa2oYgTTMYPnYC9uQkcpt8Mx7UscW4mh0CeyZJRPmncgAgjawcVq69EYA30mC02fuxzPwbxETRIqCujRsuyxCxEbMqnyVB5+EY7NhKyFnGx4QKpu3vrs1Qm3bNjk/YCv9m3yz1yiPjltbhO/LhMHqhFjM9j6MMV1ymtyxjKeQQ1Zdw3Ynd3IId3igP2Ed8vHszO3N5DNlCVwUPkt7KUnaQS7FIrcI77iQvkwECxdxxXKzvAcZ7NFYS5mJn8oPqHayX42WhmPZmVICDQ7qzCh3xSp8ePgF4VjzG69FQ4QE4SfalT+rQE/9waehjVSrFmLE9Cs+YFDjfLSCYxOZ83SgKo/fkK8XDIeIVKScw64uJCRTB/yK2d+MiedgdCu+rHeoKYN0uLz82g7+F4LTRyPZDk28nRWn7jHlQA6a89TWRLl+C6qGjthex66s74llGkwpw3D7dXZ3/VD6EsSkXi1yYulsmhzQLwxV5Cu/s2Mjym81D6L6SkWq+n3Mxlw63cZkm7rMDBt2EB1XLDDBCtAolajzEqyaWaDFIKZDYIrwzI8WPCyYEMHPLVkQ34W8bh30SOWOy94jcB5qaoqzcJOLEGcJxWh20djqeLEpgDXwk8zrPqB1VGxgu375FTUuWAM4YIEaXquSLRVanb2Vu5YhztAIo2cfnOw0Wp8SaPIB24/C8Vk7AS3hLFAsEOzfkqI43pt/GIVpbRClqrl/3u7AHkDbV7v3VUxl7pFQaqVWVDhYjcza1g3vSVXN9wEZIrNnF/o2e/u4CRcg8QVxRY6qZMwI4KG368+qv08q/kgOq8EuK/TrrTRsCeIlf6kraIcsIxBrxf6y6dq98+yfLk30ks4BpYaZr55E1giiJDxFsiD4Seqee+x6HuPlaIx1KtzfXhdnRSicgarBeyFGe6LgO7IIWWghEzRcKaFElfRF/thvVrGqtS9tRTHCK7FQFxy3LFfmdZhIPI+9IYBCug25ZSRHmeovdHzjS5MdtiaMNyUyge3n4lyKtTkUkXnInFB3SPQ3DU6bB+FLj1SteFy6hBrh2MMyVLr/BcBERasoUoI8do6VuPcCVJAbTQlKyhRH0jKX0C81IW10ZwRHFMAq6/T8pzc0cmcXOEBnUm6MUPQkO8Y2fe4f4uqN3BfAI9ztzxcOY7NWyekL8Ypl6F6bMODBAkyI/CDnet8EBCJIUIx1qdDSQhVmCIh5bIeCopYBekibRMO9hykChM9TpG2iNYUyNuD7MGCn+3Zwn/yRTEtAwtpPwYlRPv5qtiUAKZeCrCQCuwMApWcG6hXez8Urf+YA/geweQYonM4/VXOUgNBWpHalGggqBmX83KdJFiZkbv3fHevv/hfbJIDGFXHyaDmO7E5AhtubJADxcylGY28tjzUcHeRFZQDMlr0B1sthzaZAY1XRmxxr4uRZKxSQU12APAiDKhw5pBxLrdR9VAKEP0YolHvL43Pzim4yW6qHbnhzE3KH0bfJCq21MNZ/jCFIYeiOedXQMcdQgBKxyt9eJ7F8J9iCWsjnmckvULz0PlBicYU8YTnkn6iY1VY2ZVQ1nc25uFOVDdmwvrpUyELDN21IVtwrgZh0i2H8V7l7Tpr6RePM2ZFftCoQZfnrI1HaI5bDW7gHr1VcxrIhro+mQZ/EXF+DgUTvbW+AzPBaQSF3Ri8ZOSZBjyyLGapTwfs6c+vn9dT1tcjFKpaHpvOy+k22VHUVYVcxX64AAA=;" vertex="1" parent="1">
          <mxGeometry y="-20" width="1560" height="1136.89" as="geometry" />
        </mxCell>
      </root>
    </mxGraphModel>
  </diagram>
</mxfile>
